<svg width="320" height="116" viewBox="0 0 320 116" fill="none" xmlns="http://www.w3.org/2000/svg">
<g id="Frame 244" opacity="0.5" clip-path="url(#clip0_42_845)">
<mask id="mask0_42_845" style="mask-type:alpha" maskUnits="userSpaceOnUse" x="-30" y="6" width="359" height="103">
<path id="Vector" d="M155.388 85.2411C189.437 96.6588 224.654 108.493 259.243 108.493C284.218 108.493 306.768 102.409 328.149 89.8248L328.149 36.2366C306.678 47.9043 284.038 53.6548 259.153 53.6548C223.217 53.6548 187.281 41.5704 152.603 29.9027C118.554 18.485 83.3369 6.65059 48.8386 6.65059C20.2696 6.65059 -5.42448 14.7347 -29.6811 31.4862L-29.6811 84.5744C-5.42447 68.9896 20.3595 61.4889 48.8386 61.4889C84.7744 61.5723 120.71 73.6567 155.388 85.2411Z" fill="url(#paint0_linear_42_845)"/>
</mask>
<g mask="url(#mask0_42_845)">
<path id="Vector_2" d="M155.388 85.2411C189.437 96.6588 224.654 108.493 259.243 108.493C284.218 108.493 306.768 102.409 328.149 89.8248L328.149 36.2366C306.678 47.9043 284.038 53.6548 259.153 53.6548C223.217 53.6548 187.281 41.5704 152.603 29.9027C118.554 18.485 83.3369 6.65059 48.8386 6.65059C20.2696 6.65059 -5.42448 14.7347 -29.6811 31.4862L-29.6811 84.5744C-5.42447 68.9896 20.3595 61.4889 48.8386 61.4889C84.7744 61.5723 120.71 73.6567 155.388 85.2411Z" fill="url(#paint1_linear_42_845)"/>
<path id="Vector_3" d="M36.8635 -0.850105C77.6796 3.49181 116.811 21.5686 154.671 39.0302C191.849 56.1315 230.298 73.8478 269.584 78.0269C297.951 81.0445 324.36 76.8489 350.294 65.1178L357.301 4.25763C331.385 14.935 304.918 18.7407 276.755 15.7447C235.939 11.4028 196.705 -6.68477 158.846 -24.1464C121.668 -41.2477 83.2178 -58.964 44.0343 -63.1323C11.5855 -66.5841 -18.7697 -60.4092 -48.4014 -44.3696L-55.3539 16.0166C-25.762 1.22019 4.41472 -4.30193 36.8635 -0.850105Z" fill="url(#paint2_linear_42_845)"/>
<path id="Vector_4" d="M161.971 29.6073C194.838 42.058 228.83 54.9557 263.125 58.3859C291.525 61.2265 317.852 57.3718 343.316 46.4746L347.879 4.32467C322.426 14.2865 296.149 17.6781 267.838 14.8464C232.114 11.2733 197.518 -1.88547 164.048 -14.5972C131.181 -27.048 97.1884 -39.9457 62.8042 -43.3848C37.9761 -45.8681 15.0365 -43.2798 -7.30082 -35.4143L-11.8995 7.06654C10.4483 -0.0622534 33.4486 -2.37691 58.098 0.0885362C93.8076 3.79398 128.411 16.8866 161.971 29.6073Z" fill="url(#paint3_linear_42_845)"/>
<path id="Vector_5" d="M133.964 128.915C172.319 140.75 211.988 153.013 251.274 154.482C283.808 155.699 313.469 149.444 341.606 135.238L343.561 86.9527C315.364 100.094 285.725 105.818 253.293 104.606C212.37 103.075 171.993 90.5575 132.932 78.4686C94.5773 66.6339 54.908 54.3704 15.5192 52.8974C-12.9225 51.8338 -38.826 56.4069 -63.6387 66.9422L-65.6083 115.606C-40.7271 105.908 -14.7336 101.642 13.5035 102.698C54.4208 104.38 94.8001 116.822 133.964 128.915Z" fill="url(#paint4_linear_42_845)" fill-opacity="0.3"/>
</g>
</g>
<defs>
<linearGradient id="paint0_linear_42_845" x1="328.149" y1="46.689" x2="-59.5968" y2="49.264" gradientUnits="userSpaceOnUse">
<stop stop-color="#FF01FF"/>
<stop offset="0.437418" stop-color="#652CF9"/>
<stop offset="1" stop-color="#040093"/>
</linearGradient>
<linearGradient id="paint1_linear_42_845" x1="328.149" y1="46.689" x2="-59.5968" y2="49.264" gradientUnits="userSpaceOnUse">
<stop stop-color="#18D9E2"/>
<stop offset="0.437418" stop-color="#4920DC"/>
<stop offset="1" stop-color="#040093"/>
</linearGradient>
<linearGradient id="paint2_linear_42_845" x1="355.266" y1="48.4363" x2="-93.3918" y2="-25.3729" gradientUnits="userSpaceOnUse">
<stop offset="0.0436055" stop-color="#FD02FF"/>
<stop offset="0.268925" stop-color="#4920DC"/>
<stop offset="0.748858" stop-color="#1207A2"/>
</linearGradient>
<linearGradient id="paint3_linear_42_845" x1="-7.38013" y1="4.42667" x2="357.256" y2="18.9754" gradientUnits="userSpaceOnUse">
<stop offset="0.447664" stop-color="#4DB0FF"/>
<stop offset="0.872591" stop-color="#652CF9"/>
</linearGradient>
<linearGradient id="paint4_linear_42_845" x1="-60.6686" y1="112.281" x2="355.298" y2="100.827" gradientUnits="userSpaceOnUse">
<stop stop-color="#1E00CA"/>
<stop offset="0.447664" stop-color="#652CF9"/>
<stop offset="0.872591" stop-color="#4DB0FF"/>
</linearGradient>
<clipPath id="clip0_42_845">
<rect width="320" height="116" fill="white"/>
</clipPath>
</defs>
</svg>
