<svg width="690" height="117" viewBox="0 0 690 117" fill="none" xmlns="http://www.w3.org/2000/svg">
<g id="Frame 244" opacity="0.5" clip-path="url(#clip0_43_1326)">
<mask id="mask0_43_1326" style="mask-type:alpha" maskUnits="userSpaceOnUse" x="-64" y="-95" width="772" height="229">
<path id="Vector" d="M335.056 81.2977C408.474 106.91 484.411 133.458 558.992 133.458C612.845 133.458 661.468 119.81 707.572 91.5801L707.572 -28.6313C661.274 -2.45775 612.457 10.4421 558.798 10.4421C481.311 10.4421 403.825 -16.6662 329.05 -42.8398C255.632 -68.4525 179.695 -94.9999 105.308 -94.9999C43.7063 -94.9999 -11.6966 -76.8654 -64 -39.2876L-64 79.8021C-11.6966 44.8417 43.9 28.0158 105.308 28.0158C182.795 28.2027 260.281 55.3111 335.056 81.2977Z" fill="url(#paint0_linear_43_1326)"/>
</mask>
<g mask="url(#mask0_43_1326)">
<path id="Vector_2" d="M335.056 81.2977C408.474 106.91 484.411 133.458 558.992 133.458C612.845 133.458 661.468 119.81 707.572 91.5801L707.572 -28.6313C661.274 -2.45775 612.457 10.4421 558.798 10.4421C481.311 10.4421 403.825 -16.6662 329.05 -42.8398C255.632 -68.4525 179.695 -94.9999 105.308 -94.9999C43.7063 -94.9999 -11.6966 -76.8654 -64 -39.2876L-64 79.8021C-11.6966 44.8417 43.9 28.0158 105.308 28.0158C182.795 28.2027 260.281 55.3111 335.056 81.2977Z" fill="url(#paint1_linear_43_1326)"/>
<path id="Vector_3" d="M79.4871 -111.826C167.497 -102.086 251.874 -61.5355 333.509 -22.3648C413.674 15.9975 496.581 55.7396 581.291 65.1144C642.457 71.8836 699.401 62.4717 755.321 36.1562L770.43 -100.368C714.549 -76.4161 657.479 -67.8791 596.753 -74.5997C508.743 -84.3397 424.146 -124.915 342.511 -164.085C262.346 -202.448 179.438 -242.19 94.9491 -251.54C24.9814 -259.283 -40.472 -245.432 -104.365 -209.451L-119.357 -73.9899C-55.5493 -107.182 9.51934 -119.569 79.4871 -111.826Z" fill="url(#paint2_linear_43_1326)"/>
<path id="Vector_4" d="M349.249 -43.5025C420.118 -15.5725 493.414 13.3602 567.362 21.0549C628.601 27.4271 685.368 18.78 740.275 -5.66494L750.113 -100.218C695.23 -77.8707 638.571 -70.2626 577.525 -76.6148C500.496 -84.6301 425.899 -114.148 353.727 -142.664C282.858 -170.594 209.562 -199.527 135.421 -207.241C81.8858 -212.812 32.4223 -207.006 -15.7425 -189.362L-25.6585 -94.0669C22.529 -110.058 72.1234 -115.251 125.274 -109.72C202.272 -101.408 276.885 -72.0382 349.249 -43.5025Z" fill="url(#paint3_linear_43_1326)"/>
<path id="Vector_5" d="M288.86 179.268C371.562 205.816 457.099 233.326 541.81 236.622C611.962 239.351 675.917 225.321 736.588 193.452L740.802 85.1371C680.003 114.617 616.094 127.457 546.163 124.737C457.922 121.304 370.861 93.2234 286.634 66.1051C203.932 39.557 118.395 12.0471 33.4633 8.74281C-27.8643 6.35683 -83.7185 16.6154 -137.221 40.2486L-141.468 149.413C-87.8178 127.659 -31.7694 118.089 29.1169 120.458C117.345 124.231 204.413 152.141 288.86 179.268Z" fill="url(#paint4_linear_43_1326)" fill-opacity="0.3"/>
</g>
</g>
<defs>
<linearGradient id="paint0_linear_43_1326" x1="707.572" y1="-5.18412" x2="-128.508" y2="0.153082" gradientUnits="userSpaceOnUse">
<stop stop-color="#FF01FF"/>
<stop offset="0.437418" stop-color="#652CF9"/>
<stop offset="1" stop-color="#040093"/>
</linearGradient>
<linearGradient id="paint1_linear_43_1326" x1="707.572" y1="-5.18412" x2="-128.508" y2="0.153082" gradientUnits="userSpaceOnUse">
<stop stop-color="#18D9E2"/>
<stop offset="0.437418" stop-color="#4920DC"/>
<stop offset="1" stop-color="#040093"/>
</linearGradient>
<linearGradient id="paint2_linear_43_1326" x1="766.042" y1="-1.2645" x2="-203.319" y2="-154.551" gradientUnits="userSpaceOnUse">
<stop offset="0.0436055" stop-color="#FD02FF"/>
<stop offset="0.268925" stop-color="#4920DC"/>
<stop offset="0.748858" stop-color="#1207A2"/>
</linearGradient>
<linearGradient id="paint3_linear_43_1326" x1="-15.9136" y1="-99.9887" x2="770.429" y2="-69.8309" gradientUnits="userSpaceOnUse">
<stop offset="0.447664" stop-color="#4DB0FF"/>
<stop offset="0.872591" stop-color="#652CF9"/>
</linearGradient>
<linearGradient id="paint4_linear_43_1326" x1="-130.817" y1="141.956" x2="766.162" y2="118.213" gradientUnits="userSpaceOnUse">
<stop stop-color="#1E00CA"/>
<stop offset="0.447664" stop-color="#652CF9"/>
<stop offset="0.872591" stop-color="#4DB0FF"/>
</linearGradient>
<clipPath id="clip0_43_1326">
<rect width="690" height="117" fill="white"/>
</clipPath>
</defs>
</svg>
