<svg width="690" height="244" viewBox="0 0 690 244" fill="none" xmlns="http://www.w3.org/2000/svg">
<g id="Group 244" opacity="0.6">
<mask id="mask0_42_555" style="mask-type:alpha" maskUnits="userSpaceOnUse" x="-92" y="0" width="825" height="244">
<path id="Vector" d="M335.016 188.291C413.43 215.647 494.532 244 574.187 244C631.704 244 683.634 229.424 732.875 199.273L732.875 70.8838C683.428 98.838 631.29 112.615 573.98 112.615C491.222 112.615 408.464 83.6629 328.603 55.7087C250.189 28.3536 169.087 0.000110323 89.639 0.000117269C23.8463 0.00012302 -35.3257 19.3684 -91.1873 59.5026L-91.1873 186.694C-35.3257 149.355 24.0532 131.385 89.639 131.385C172.397 131.584 255.155 160.537 335.016 188.291Z" fill="url(#paint0_linear_42_555)"/>
</mask>
<g mask="url(#mask0_42_555)">
<path id="Vector_2" d="M335.016 188.291C413.43 215.647 494.532 244 574.187 244C631.704 244 683.634 229.424 732.875 199.273L732.875 70.8838C683.428 98.838 631.29 112.615 573.98 112.615C491.222 112.615 408.464 83.6629 328.603 55.7087C250.189 28.3536 169.087 0.000110323 89.639 0.000117269C23.8463 0.00012302 -35.3257 19.3684 -91.1873 59.5026L-91.1873 186.694C-35.3257 149.355 24.0532 131.385 89.639 131.385C172.397 131.584 255.155 160.537 335.016 188.291Z" fill="url(#paint1_linear_42_555)"/>
<path id="Vector_3" d="M62.0537 -17.9716C156.051 -7.56901 246.168 35.7402 333.357 77.5757C418.975 118.548 507.523 160.994 597.995 171.006C663.323 178.236 724.141 168.184 783.865 140.078L800.002 -5.73421C740.32 19.8473 679.367 28.965 614.509 21.7872C520.512 11.3846 430.16 -31.9506 342.972 -73.7861C257.353 -114.758 168.805 -157.204 78.5677 -167.191C3.83992 -175.461 -66.0663 -160.667 -134.306 -122.238L-150.318 22.4385C-82.1693 -13.0115 -12.674 -26.2417 62.0537 -17.9716Z" fill="url(#paint2_linear_42_555)"/>
<path id="Vector_4" d="M350.182 55.0003C425.873 84.8304 504.155 115.731 583.134 123.95C648.539 130.755 709.168 121.52 767.81 95.412L778.318 -5.5731C719.701 18.294 659.188 26.4197 593.989 19.6354C511.719 11.0747 432.046 -20.4517 354.965 -50.9072C279.275 -80.7373 200.993 -111.638 121.808 -119.878C64.6302 -125.828 11.8016 -119.627 -39.64 -100.782L-50.2305 0.996009C1.23525 -16.0835 54.2036 -21.6291 110.97 -15.7223C193.207 -6.84455 272.896 24.5233 350.182 55.0003Z" fill="url(#paint3_linear_42_555)"/>
<path id="Vector_5" d="M285.68 292.929C374.009 321.283 465.365 350.664 555.839 354.184C630.764 357.099 699.069 342.114 763.869 308.077L768.369 192.394C703.433 223.879 635.177 237.593 560.488 234.687C466.244 231.021 373.26 201.03 283.304 172.067C194.975 143.713 103.619 114.331 12.9091 110.802C-52.5906 108.254 -112.245 119.21 -169.387 144.451L-173.923 261.043C-116.623 237.809 -56.7614 227.588 8.26711 230.118C102.497 234.148 195.488 263.956 285.68 292.929Z" fill="url(#paint4_linear_42_555)" fill-opacity="0.3"/>
</g>
</g>
<defs>
<linearGradient id="paint0_linear_42_555" x1="732.875" y1="95.9262" x2="-160.084" y2="101.626" gradientUnits="userSpaceOnUse">
<stop stop-color="#FF01FF"/>
<stop offset="0.437418" stop-color="#652CF9"/>
<stop offset="1" stop-color="#040093"/>
</linearGradient>
<linearGradient id="paint1_linear_42_555" x1="732.875" y1="95.9262" x2="-160.084" y2="101.626" gradientUnits="userSpaceOnUse">
<stop stop-color="#18D9E2"/>
<stop offset="0.437418" stop-color="#4920DC"/>
<stop offset="1" stop-color="#040093"/>
</linearGradient>
<linearGradient id="paint2_linear_42_555" x1="795.316" y1="100.111" x2="-239.992" y2="-63.6033" gradientUnits="userSpaceOnUse">
<stop offset="0.0436055" stop-color="#FD02FF"/>
<stop offset="0.268925" stop-color="#4920DC"/>
<stop offset="0.748858" stop-color="#1207A2"/>
</linearGradient>
<linearGradient id="paint3_linear_42_555" x1="-39.8226" y1="-5.32874" x2="800.015" y2="26.8807" gradientUnits="userSpaceOnUse">
<stop offset="0.447664" stop-color="#4DB0FF"/>
<stop offset="0.872591" stop-color="#652CF9"/>
</linearGradient>
<linearGradient id="paint4_linear_42_555" x1="-162.547" y1="253.078" x2="795.454" y2="227.72" gradientUnits="userSpaceOnUse">
<stop stop-color="#1E00CA"/>
<stop offset="0.447664" stop-color="#652CF9"/>
<stop offset="0.872591" stop-color="#4DB0FF"/>
</linearGradient>
</defs>
</svg>
