<svg width="690" height="225" viewBox="0 0 690 225" fill="none" xmlns="http://www.w3.org/2000/svg">
<g id="Frame 244" opacity="0.6" clip-path="url(#clip0_42_387)">
<mask id="mask0_42_387" style="mask-type:alpha" maskUnits="userSpaceOnUse" x="-92" y="0" width="825" height="244">
<path id="Vector" d="M335.016 188.291C413.429 215.646 494.532 244 574.186 244C631.703 244 683.634 229.424 732.875 199.273L732.875 70.8838C683.427 98.838 631.29 112.615 573.98 112.615C491.222 112.615 408.464 83.6628 328.602 55.7087C250.189 28.3535 169.086 4.9288e-05 89.6385 5.62335e-05C23.8458 6.19853e-05 -35.3262 19.3683 -91.1878 59.5025L-91.1878 186.694C-35.3262 149.355 24.0527 131.385 89.6385 131.385C172.396 131.584 255.154 160.537 335.016 188.291Z" fill="url(#paint0_linear_42_387)"/>
</mask>
<g mask="url(#mask0_42_387)">
<path id="Vector_2" d="M335.016 188.291C413.429 215.646 494.532 244 574.186 244C631.703 244 683.634 229.424 732.875 199.273L732.875 70.8838C683.427 98.838 631.29 112.615 573.98 112.615C491.222 112.615 408.464 83.6628 328.602 55.7087C250.189 28.3535 169.086 4.9288e-05 89.6385 5.62335e-05C23.8458 6.19853e-05 -35.3262 19.3683 -91.1878 59.5025L-91.1878 186.694C-35.3262 149.355 24.0527 131.385 89.6385 131.385C172.396 131.584 255.154 160.537 335.016 188.291Z" fill="url(#paint1_linear_42_387)"/>
<path id="Vector_3" d="M62.0532 -17.9716C156.05 -7.56901 246.168 35.7402 333.356 77.5757C418.975 118.548 507.523 160.994 597.995 171.006C663.323 178.236 724.141 168.184 783.865 140.078L800.002 -5.73421C740.319 19.8473 679.367 28.965 614.509 21.7872C520.512 11.3846 430.159 -31.9506 342.971 -73.7861C257.352 -114.758 168.804 -157.204 78.5672 -167.191C3.83943 -175.461 -66.0668 -160.667 -134.307 -122.238L-150.318 22.4385C-82.1698 -13.0115 -12.6745 -26.2417 62.0532 -17.9716Z" fill="url(#paint2_linear_42_387)"/>
<path id="Vector_4" d="M350.182 55.0003C425.873 84.8304 504.155 115.731 583.134 123.95C648.538 130.755 709.167 121.52 767.809 95.412L778.317 -5.5731C719.7 18.294 659.187 26.4197 593.988 19.6354C511.718 11.0747 432.046 -20.4517 354.965 -50.9072C279.274 -80.7373 200.992 -111.638 121.807 -119.878C64.6297 -125.828 11.8011 -119.627 -39.6404 -100.782L-50.231 0.996009C1.23479 -16.0835 54.2031 -21.6291 110.969 -15.7223C193.206 -6.84455 272.895 24.5233 350.182 55.0003Z" fill="url(#paint3_linear_42_387)"/>
<path id="Vector_5" d="M285.68 292.929C374.008 321.283 465.364 350.664 555.839 354.184C630.763 357.099 699.069 342.114 763.868 308.077L768.369 192.394C703.433 223.879 635.177 237.593 560.488 234.687C466.244 231.021 373.26 201.03 283.303 172.067C194.975 143.713 103.619 114.331 12.9087 110.802C-52.5911 108.254 -112.245 119.21 -169.387 144.451L-173.923 261.043C-116.623 237.809 -56.7619 227.588 8.26665 230.118C102.497 234.148 195.488 263.956 285.68 292.929Z" fill="url(#paint4_linear_42_387)" fill-opacity="0.3"/>
</g>
</g>
<defs>
<linearGradient id="paint0_linear_42_387" x1="732.875" y1="95.9261" x2="-160.085" y2="101.626" gradientUnits="userSpaceOnUse">
<stop stop-color="#FF01FF"/>
<stop offset="0.437418" stop-color="#652CF9"/>
<stop offset="1" stop-color="#040093"/>
</linearGradient>
<linearGradient id="paint1_linear_42_387" x1="732.875" y1="95.9261" x2="-160.085" y2="101.626" gradientUnits="userSpaceOnUse">
<stop stop-color="#18D9E2"/>
<stop offset="0.437418" stop-color="#4920DC"/>
<stop offset="1" stop-color="#040093"/>
</linearGradient>
<linearGradient id="paint2_linear_42_387" x1="795.315" y1="100.111" x2="-239.992" y2="-63.6033" gradientUnits="userSpaceOnUse">
<stop offset="0.0436055" stop-color="#FD02FF"/>
<stop offset="0.268925" stop-color="#4920DC"/>
<stop offset="0.748858" stop-color="#1207A2"/>
</linearGradient>
<linearGradient id="paint3_linear_42_387" x1="-39.8231" y1="-5.32874" x2="800.015" y2="26.8807" gradientUnits="userSpaceOnUse">
<stop offset="0.447664" stop-color="#4DB0FF"/>
<stop offset="0.872591" stop-color="#652CF9"/>
</linearGradient>
<linearGradient id="paint4_linear_42_387" x1="-162.548" y1="253.078" x2="795.454" y2="227.72" gradientUnits="userSpaceOnUse">
<stop stop-color="#1E00CA"/>
<stop offset="0.447664" stop-color="#652CF9"/>
<stop offset="0.872591" stop-color="#4DB0FF"/>
</linearGradient>
<clipPath id="clip0_42_387">
<rect width="690" height="225" fill="white"/>
</clipPath>
</defs>
</svg>
